<svg width="171" height="140" viewBox="0 0 171 140" fill="none" xmlns="http://www.w3.org/2000/svg">
<path d="M64.0721 65.2634H71.5666V93.3686C68.1184 96.3862 64.037 98.702 59.3221 100.316C54.6073 101.93 49.6461 102.737 44.4388 102.737C37.0499 102.737 30.3999 101.123 24.4888 97.8949C18.5777 94.6668 13.9332 90.2107 10.5554 84.5265C7.17766 78.7721 5.48877 72.351 5.48877 65.2634C5.48877 58.1757 7.17766 51.7897 10.5554 46.1055C13.9332 40.351 18.5777 35.8599 24.4888 32.6318C30.3999 29.4037 37.085 27.7897 44.5443 27.7897C50.1739 27.7897 55.3461 28.702 60.061 30.5265C64.7758 32.2809 68.7517 34.9125 71.9888 38.4213L67.1332 43.3686C61.2925 37.6142 53.8684 34.737 44.861 34.737C38.8795 34.737 33.461 36.0704 28.6054 38.737C23.8203 41.3336 20.0554 44.9826 17.311 49.6844C14.5665 54.316 13.1943 59.5089 13.1943 65.2634C13.1943 71.0178 14.5665 76.2107 17.311 80.8423C20.0554 85.4739 23.8203 89.123 28.6054 91.7897C33.3906 94.4563 38.7739 95.7897 44.7554 95.7897C52.3554 95.7897 58.7943 93.8949 64.0721 90.1055V65.2634Z" fill="#FFCB14"/>
<path d="M125.974 102.737C118.655 102.737 112.005 101.123 106.024 97.8949C100.113 94.5967 95.4683 90.1055 92.0905 84.4213C88.783 78.737 87.1294 72.351 87.1294 65.2634C87.1294 58.1757 88.783 51.7897 92.0905 46.1055C95.4683 40.4213 100.113 35.9651 106.024 32.737C112.005 29.4388 118.655 27.7897 125.974 27.7897C133.292 27.7897 139.872 29.4037 145.713 32.6318C151.624 35.8599 156.269 40.351 159.646 46.1055C163.024 51.7897 164.713 58.1757 164.713 65.2634C164.713 72.351 163.024 78.7721 159.646 84.5265C156.269 90.2107 151.624 94.6668 145.713 97.8949C139.872 101.123 133.292 102.737 125.974 102.737ZM125.974 95.7897C131.814 95.7897 137.092 94.4915 141.807 91.895C146.521 89.2283 150.216 85.5792 152.891 80.9476C155.564 76.2458 156.902 71.0178 156.902 65.2634C156.902 59.5089 155.564 54.316 152.891 49.6844C150.216 44.9826 146.521 41.3336 141.807 38.737C137.092 36.0704 131.814 34.737 125.974 34.737C120.133 34.737 114.82 36.0704 110.035 38.737C105.32 41.3336 101.591 44.9826 98.8461 49.6844C96.1719 54.316 94.835 59.5089 94.835 65.2634C94.835 71.0178 96.1719 76.2458 98.8461 80.9476C101.591 85.5792 105.32 89.2283 110.035 91.895C114.82 94.4915 120.133 95.7897 125.974 95.7897Z" fill="#100070"/>
<path d="M12.6478 132.796C11.2207 132.796 9.84843 132.567 8.5311 132.112C7.23205 131.656 6.22576 131.054 5.51221 130.305L6.3081 128.745C7.00336 129.439 7.92732 130.004 9.07998 130.442C10.2327 130.862 11.4219 131.072 12.6478 131.072C14.3676 131.072 15.6575 130.761 16.5174 130.141C17.3774 129.502 17.8073 128.681 17.8073 127.678C17.8073 126.912 17.5695 126.3 17.0938 125.844C16.6364 125.388 16.0691 125.041 15.3922 124.804C14.7153 124.548 13.773 124.275 12.5654 123.983C11.1201 123.618 9.96736 123.272 9.10743 122.943C8.2475 122.597 7.5065 122.077 6.88443 121.383C6.28065 120.69 5.97876 119.751 5.97876 118.564C5.97876 117.597 6.23491 116.721 6.74721 115.937C7.2595 115.134 8.04625 114.496 9.10743 114.021C10.1686 113.546 11.4859 113.31 13.0594 113.31C14.1572 113.31 15.2275 113.464 16.2704 113.775C17.3316 114.066 18.2464 114.477 19.0149 115.006L18.3288 116.621C17.5237 116.092 16.6638 115.7 15.749 115.444C14.8341 115.171 13.9377 115.034 13.0594 115.034C11.3761 115.034 10.1046 115.362 9.24465 116.019C8.40303 116.658 7.98221 117.487 7.98221 118.51C7.98221 119.276 8.21091 119.896 8.66832 120.371C9.14402 120.826 9.7295 121.182 10.4248 121.438C11.1383 121.675 12.0897 121.94 13.279 122.232C14.6878 122.578 15.8221 122.925 16.6821 123.272C17.5603 123.6 18.3013 124.111 18.9051 124.804C19.5089 125.479 19.8108 126.401 19.8108 127.568C19.8108 128.536 19.5455 129.42 19.0149 130.223C18.5026 131.007 17.7067 131.637 16.6272 132.112C15.5477 132.567 14.2213 132.796 12.6478 132.796ZM32.9082 132.796C31.0053 132.796 29.2764 132.376 27.7212 131.537C26.1843 130.679 24.9768 129.512 24.0985 128.034C23.2386 126.556 22.8086 124.896 22.8086 123.053C22.8086 121.21 23.2386 119.55 24.0985 118.072C24.9768 116.594 26.1843 115.435 27.7212 114.596C29.2764 113.738 31.0053 113.31 32.9082 113.31C34.811 113.31 36.5217 113.73 38.0403 114.568C39.5772 115.407 40.7848 116.576 41.663 118.072C42.5412 119.55 42.9803 121.21 42.9803 123.053C42.9803 124.896 42.5412 126.565 41.663 128.061C40.7848 129.539 39.5772 130.698 38.0403 131.537C36.5217 132.376 34.811 132.796 32.9082 132.796ZM32.9082 130.99C34.4268 130.99 35.799 130.652 37.0249 129.977C38.2507 129.283 39.2112 128.335 39.9065 127.131C40.6018 125.908 40.9494 124.548 40.9494 123.053C40.9494 121.557 40.6018 120.206 39.9065 119.002C39.2112 117.78 38.2507 116.831 37.0249 116.156C35.799 115.462 34.4268 115.116 32.9082 115.116C31.3896 115.116 30.0083 115.462 28.7641 116.156C27.5383 116.831 26.5685 117.78 25.855 119.002C25.1597 120.206 24.8121 121.557 24.8121 123.053C24.8121 124.548 25.1597 125.908 25.855 127.131C26.5685 128.335 27.5383 129.283 28.7641 129.977C30.0083 130.652 31.3896 130.99 32.9082 130.99ZM49.8377 115.225V122.752H59.7726V124.503H49.8377V132.632H47.8068V113.474H60.9802V115.225H49.8377ZM69.3149 115.225H62.5636V113.474H78.0972V115.225H71.3458V132.632H69.3149V115.225ZM107.856 113.474L101.379 132.632H99.2387L93.6126 116.293L87.959 132.632H85.8458L79.3689 113.474H81.4547L86.9985 129.95L92.7343 113.474H94.628L100.282 130.032L105.907 113.474H107.856ZM123.313 127.514H112.61L110.305 132.632H108.191L116.974 113.474H118.977L127.759 132.632H125.619L123.313 127.514ZM122.572 125.872L117.962 115.581L113.351 125.872H122.572ZM144.329 132.632L139.938 126.474C139.444 126.528 138.932 126.556 138.401 126.556H133.242V132.632H131.211V113.474H138.401C140.853 113.474 142.775 114.058 144.165 115.225C145.556 116.393 146.25 117.999 146.25 120.042C146.25 121.538 145.866 122.806 145.098 123.846C144.348 124.868 143.269 125.607 141.859 126.063L146.552 132.632H144.329ZM138.346 124.832C140.25 124.832 141.704 124.412 142.71 123.573C143.717 122.734 144.22 121.557 144.22 120.042C144.22 118.492 143.717 117.305 142.71 116.484C141.704 115.645 140.25 115.225 138.346 115.225H133.242V124.832H138.346ZM164.903 130.88V132.632H151.318V113.474H164.492V115.225H153.349V122.04H163.284V123.764H153.349V130.88H164.903Z" fill="#070032"/>
</svg>
